<?xml version="1.0" encoding="utf-8"?>
<!-- Generator: Adobe Illustrator 25.1.0, SVG Export Plug-In . SVG Version: 6.00 Build 0)  -->
<svg version="1.1" id="Layer_1" xmlns="http://www.w3.org/2000/svg" xmlns:xlink="http://www.w3.org/1999/xlink" x="0px" y="0px"
	 viewBox="0 0 300 300" style="enable-background:new 0 0 300 300;" xml:space="preserve">
<g>
	<path d="M146.6,193.2c-8,7.9-16.7,13.5-26.1,16.8c-9.4,3.3-19.4,5-30.1,5c-13.7,0-25.4-2-35.1-6c-9.7-4-17.6-9.3-23.7-16
		c-6.1-6.7-10.6-14.4-13.5-23.2c-2.9-8.8-4.3-17.9-4.3-27.4c0-8.9,1.5-17.8,4.5-26.7c3-8.9,7.7-16.8,14-23.9
		c6.3-7.1,14.3-12.8,23.9-17.1c9.6-4.3,21-6.5,34.2-6.5c10.1,0,19.7,1.8,28.7,5.4c9,3.6,17.5,9.3,25.5,17l-24.4,24
		c-5.1-4.8-10.1-8-15.2-9.7c-5.1-1.7-9.9-2.5-14.6-2.5c-6.8,0-12.6,1.2-17.3,3.7c-4.7,2.5-8.6,5.7-11.6,9.6c-3,3.9-5.2,8.3-6.5,13
		c-1.3,4.7-2,9.4-2,13.9c0,4.5,0.7,9.1,2,13.7c1.3,4.6,3.5,8.8,6.4,12.5c2.9,3.7,6.8,6.8,11.5,9.1c4.7,2.3,10.6,3.5,17.5,3.5
		c2.4,0,5-0.3,7.8-0.8c2.8-0.5,5.6-1.4,8.5-2.5c2.9-1.1,5.7-2.6,8.6-4.4c2.9-1.8,5.6-4,8.1-6.5L146.6,193.2z"/>
	<path d="M287.9,193.2c-8,7.9-16.7,13.5-26.1,16.8c-9.4,3.3-19.4,5-30.1,5c-13.7,0-25.4-2-35.1-6c-9.7-4-17.6-9.3-23.7-16
		c-6.1-6.7-10.6-14.4-13.5-23.2c-2.9-8.8-4.3-17.9-4.3-27.4c0-8.9,1.5-17.8,4.5-26.7c3-8.9,7.7-16.8,14-23.9
		c6.3-7.1,14.3-12.8,23.9-17.1c9.6-4.3,21-6.5,34.2-6.5c10.1,0,19.7,1.8,28.7,5.4c9,3.6,17.5,9.3,25.5,17l-24.4,24
		c-5.1-4.8-10.1-8-15.2-9.7c-5.1-1.7-9.9-2.5-14.6-2.5c-6.8,0-12.6,1.2-17.3,3.7c-4.7,2.5-8.6,5.7-11.6,9.6c-3,3.9-5.2,8.3-6.5,13
		c-1.3,4.7-2,9.4-2,13.9c0,4.5,0.7,9.1,2,13.7c1.3,4.6,3.5,8.8,6.4,12.5c2.9,3.7,6.8,6.8,11.5,9.1c4.7,2.3,10.6,3.5,17.5,3.5
		c2.4,0,5-0.3,7.8-0.8c2.8-0.5,5.6-1.4,8.5-2.5c2.9-1.1,5.7-2.6,8.6-4.4c2.9-1.8,5.6-4,8.1-6.5L287.9,193.2z"/>
</g>
<g>
	<path d="M-157.6,194.2c-14.4,14.2-33,20.8-53.2,20.8c-52,0-74-35.8-74.2-72.2c-0.2-36.6,23.6-73.8,74.2-73.8c19,0,37,7.2,51.4,21.4
		l-17.6,17c-9.2-9-21.6-13.2-33.8-13.2c-33.8,0-48.4,25.2-48.2,48.6c0.2,23.2,13.6,47.4,48.2,47.4c12.2,0,26-5,35.2-14.2
		L-157.6,194.2z"/>
	<path d="M-25.6,194.2C-40,208.4-58.6,215-78.8,215c-52,0-74-35.8-74.2-72.2c-0.2-36.6,23.6-73.8,74.2-73.8c19,0,37,7.2,51.4,21.4
		l-17.6,17c-9.2-9-21.6-13.2-33.8-13.2c-33.8,0-48.4,25.2-48.2,48.6c0.2,23.2,13.6,47.4,48.2,47.4c12.2,0,26-5,35.2-14.2
		L-25.6,194.2z"/>
</g>
</svg>
