<?xml version="1.0" encoding="utf-8"?>
<!-- Generator: Adobe Illustrator 25.1.0, SVG Export Plug-In . SVG Version: 6.00 Build 0)  -->
<svg version="1.1" id="Layer_1" xmlns="http://www.w3.org/2000/svg" xmlns:xlink="http://www.w3.org/1999/xlink" x="0px" y="0px"
	 viewBox="0 0 300 300" style="enable-background:new 0 0 300 300;" xml:space="preserve">
<g>
	<path d="M464.7,193.2c-8,7.9-16.7,13.5-26.1,16.8c-9.4,3.3-19.4,5-30.1,5c-13.7,0-25.4-2-35.1-6c-9.7-4-17.6-9.3-23.7-16
		c-6.1-6.7-10.6-14.4-13.5-23.2c-2.9-8.8-4.3-17.9-4.3-27.4c0-8.9,1.5-17.8,4.5-26.7c3-8.9,7.7-16.8,14-23.9
		c6.3-7.1,14.3-12.8,23.9-17.1c9.6-4.3,21-6.5,34.2-6.5c10.1,0,19.7,1.8,28.7,5.4c9,3.6,17.5,9.3,25.5,17l-24.4,24
		c-5.1-4.8-10.1-8-15.2-9.7c-5.1-1.7-9.9-2.5-14.6-2.5c-6.8,0-12.6,1.2-17.3,3.7c-4.7,2.5-8.6,5.7-11.6,9.6c-3,3.9-5.2,8.3-6.5,13
		c-1.3,4.7-2,9.4-2,13.9c0,4.5,0.7,9.1,2,13.7c1.3,4.6,3.5,8.8,6.4,12.5c2.9,3.7,6.8,6.8,11.5,9.1c4.7,2.3,10.6,3.5,17.5,3.5
		c2.4,0,5-0.3,7.8-0.8c2.8-0.5,5.6-1.4,8.5-2.5c2.9-1.1,5.7-2.6,8.6-4.4c2.9-1.8,5.6-4,8.1-6.5L464.7,193.2z"/>
	<path d="M606.1,193.2c-8,7.9-16.7,13.5-26.1,16.8c-9.4,3.3-19.4,5-30.1,5c-13.7,0-25.4-2-35.1-6c-9.7-4-17.6-9.3-23.7-16
		c-6.1-6.7-10.6-14.4-13.5-23.2c-2.9-8.8-4.3-17.9-4.3-27.4c0-8.9,1.5-17.8,4.5-26.7c3-8.9,7.7-16.8,14-23.9
		c6.3-7.1,14.3-12.8,23.9-17.1c9.6-4.3,21-6.5,34.2-6.5c10.1,0,19.7,1.8,28.7,5.4c9,3.6,17.5,9.3,25.5,17l-24.4,24
		c-5.1-4.8-10.1-8-15.2-9.7c-5.1-1.7-9.9-2.5-14.6-2.5c-6.8,0-12.6,1.2-17.3,3.7c-4.7,2.5-8.6,5.7-11.6,9.6c-3,3.9-5.2,8.3-6.5,13
		c-1.3,4.7-2,9.4-2,13.9c0,4.5,0.7,9.1,2,13.7c1.3,4.6,3.5,8.8,6.4,12.5c2.9,3.7,6.8,6.8,11.5,9.1c4.7,2.3,10.6,3.5,17.5,3.5
		c2.4,0,5-0.3,7.8-0.8c2.8-0.5,5.6-1.4,8.5-2.5c2.9-1.1,5.7-2.6,8.6-4.4c2.9-1.8,5.6-4,8.1-6.5L606.1,193.2z"/>
</g>
<g>
	<path d="M-162.5,206.3c-15.8,15.6-36.2,22.8-58.3,22.8c-57,0-81.2-39.3-81.4-79.2c-0.2-40.1,25.9-80.9,81.4-80.9
		c20.8,0,40.6,7.9,56.4,23.5l-19.3,18.6c-10.1-9.9-23.7-14.5-37.1-14.5c-37.1,0-53.1,27.6-52.9,53.3c0.2,25.4,14.9,52,52.9,52
		c13.4,0,28.5-5.5,38.6-15.6L-162.5,206.3z"/>
	<path d="M-17.8,206.3c-15.8,15.6-36.2,22.8-58.3,22.8c-57,0-81.2-39.3-81.4-79.2c-0.2-40.1,25.9-80.9,81.4-80.9
		c20.8,0,40.6,7.9,56.4,23.5L-39,111.1c-10.1-9.9-23.7-14.5-37.1-14.5c-37.1,0-53.1,27.6-52.9,53.3c0.2,25.4,14.9,52,52.9,52
		c13.4,0,28.5-5.5,38.6-15.6L-17.8,206.3z"/>
</g>
<g>
	<path d="M142.7,195.2c-15.3,15.1-35,22.1-56.5,22.1c-55.2,0-78.5-38-78.8-76.6c-0.2-38.8,25-78.3,78.8-78.3
		c20.2,0,39.3,7.6,54.6,22.7l-18.7,18c-9.8-9.6-22.9-14-35.9-14c-35.9,0-51.4,26.7-51.2,51.6c0.2,24.6,14.4,50.3,51.2,50.3
		c12.9,0,27.6-5.3,37.4-15.1L142.7,195.2z"/>
	<path d="M294.5,195.2c-15.3,15.1-35,22.1-56.5,22.1c-55.2,0-78.5-38-78.8-76.6c-0.2-38.8,25-78.3,78.8-78.3
		c20.2,0,39.3,7.6,54.6,22.7l-18.7,18c-9.8-9.6-22.9-14-35.9-14c-35.9,0-51.4,26.7-51.2,51.6c0.2,24.6,14.4,50.3,51.2,50.3
		c12.9,0,27.6-5.3,37.4-15.1L294.5,195.2z"/>
</g>
</svg>
